<?xml version="1.0" standalone="no"?>
<!DOCTYPE svg PUBLIC "-//W3C//DTD SVG 20010904//EN"
 "http://www.w3.org/TR/2001/REC-SVG-20010904/DTD/svg10.dtd">
<svg version="1.0" xmlns="http://www.w3.org/2000/svg"
 width="503.000000pt" height="496.000000pt" viewBox="0 0 503.000000 496.000000"
 preserveAspectRatio="xMidYMid meet">

<g transform="translate(0.000000,496.000000) scale(0.100000,-0.100000)"
fill="#000000" stroke="none">
<path d="M2115 4864 c-11 -37 -16 -75 -13 -115 2 -32 1 -59 -2 -59 -11 0 -48
43 -64 74 l-15 30 -11 -28 c-16 -44 -12 -151 9 -211 11 -30 17 -55 15 -55 -3
0 -16 7 -29 16 -14 9 -25 12 -25 6 0 -21 22 -68 42 -89 20 -21 20 -24 5 -41
-18 -20 -47 -85 -47 -104 1 -7 9 -3 19 10 31 36 39 27 28 -28 -9 -45 -7 -57
18 -115 15 -35 24 -69 20 -76 -4 -6 -3 -14 2 -18 12 -8 51 -116 57 -161 11
-71 37 -156 60 -190 61 -91 149 -155 208 -151 40 2 43 -16 6 -35 -58 -30 -202
-131 -231 -162 -35 -37 -62 -125 -107 -354 l-34 -167 31 -28 c17 -15 39 -29
49 -30 27 -2 108 -25 116 -32 12 -11 11 -219 -2 -475 -10 -189 -10 -251 -2
-254 7 -2 12 -24 12 -49 l0 -46 -70 5 c-38 3 -77 11 -85 18 -9 8 -15 8 -15 2
0 -6 4 -13 9 -16 5 -3 5 -25 0 -48 -13 -66 -10 -168 5 -219 28 -90 66 -143 88
-121 6 6 17 8 24 5 9 -3 5 11 -11 38 -23 40 -24 51 -18 119 4 45 14 87 25 105
19 32 24 75 8 75 -5 0 -7 -7 -4 -15 3 -8 -3 -31 -15 -50 -14 -24 -21 -53 -21
-85 0 -49 -12 -71 -27 -48 -4 7 -13 42 -19 78 l-12 65 -1 -49 c-1 -36 7 -66
29 -111 53 -108 50 -177 -3 -82 -38 66 -50 128 -44 220 7 116 5 113 86 109
l69 -4 6 -61 c4 -34 6 -111 5 -171 -2 -116 -11 -124 -38 -34 -7 24 -17 52 -21
63 -19 46 -10 -25 10 -77 11 -29 20 -61 20 -72 0 -14 3 -16 13 -7 8 6 17 8 20
4 4 -3 7 -74 7 -157 0 -83 7 -292 16 -465 14 -263 15 -322 4 -368 -11 -42 -11
-62 -2 -85 7 -20 8 -38 1 -54 -5 -14 -9 -38 -9 -54 0 -25 -10 -34 -87 -78 -99
-57 -143 -89 -143 -104 0 -6 11 1 24 15 13 14 38 33 55 42 41 21 89 7 126 -36
42 -51 35 -59 -52 -59 -43 0 -96 5 -118 10 -45 10 -49 9 -41 -18 8 -24 47 -42
89 -41 28 1 27 2 -12 10 -25 5 -51 15 -58 22 -12 11 4 13 97 9 119 -5 223 7
331 39 77 22 79 22 79 9 0 -6 -19 -20 -42 -30 -24 -11 -32 -17 -18 -14 60 15
70 29 72 107 2 87 7 205 9 232 0 11 -4 49 -11 85 -19 101 1 878 28 1124 7 63
25 83 42 44 5 -13 19 -135 30 -273 11 -137 25 -297 30 -355 5 -58 17 -181 25
-275 9 -93 15 -224 14 -290 -1 -66 0 -155 3 -197 l4 -78 -35 -33 c-20 -18 -52
-46 -71 -62 -42 -34 -70 -73 -70 -100 0 -16 8 -21 38 -24 149 -17 244 4 360
83 74 49 74 49 68 86 -4 24 0 48 10 69 9 17 12 36 7 43 -4 7 -8 47 -9 88 -1
41 -7 122 -13 180 -8 63 -13 264 -14 499 -2 378 -1 394 17 405 77 45 126 120
125 191 -1 38 -1 37 -13 -17 -16 -76 -27 -84 -21 -17 l5 54 -13 -55 c-15 -64
-45 -130 -59 -130 -6 0 -7 8 -3 18 18 43 35 107 34 131 0 16 -6 4 -14 -29 -17
-70 -40 -123 -59 -139 -25 -21 -26 5 -2 65 26 67 39 124 28 124 -5 0 -13 -26
-20 -57 -13 -62 -44 -123 -63 -123 -11 0 -11 6 10 85 13 50 14 155 2 155 -5 0
-15 -15 -21 -34 -11 -34 -36 -63 -45 -54 -10 10 27 162 46 189 20 28 24 29 68
22 25 -4 63 -7 83 -6 l37 2 6 -57 c10 -89 15 -94 10 -10 -2 56 0 78 10 82 7 2
15 22 18 43 2 21 8 49 11 63 5 16 1 12 -8 -9 -9 -18 -16 -46 -16 -61 0 -16 -7
-30 -16 -34 -27 -10 -127 -6 -157 7 l-29 12 -2 345 c-2 190 -7 377 -11 416
l-8 71 65 6 c36 3 89 15 117 26 55 21 56 20 64 -29 3 -14 5 -6 6 19 1 28 7 48
18 56 15 11 15 18 3 71 -9 37 -15 51 -18 37 -2 -12 2 -31 7 -42 22 -40 13 -56
-44 -80 -68 -28 -158 -50 -207 -51 -31 0 -38 4 -38 19 0 15 11 19 62 25 69 7
111 20 178 54 52 26 33 23 -65 -12 -43 -16 -92 -26 -127 -26 l-58 0 0 48 c-1
60 -23 208 -33 218 -9 10 -9 13 8 -171 10 -108 20 -162 29 -169 13 -10 37
-148 35 -206 0 -14 3 -100 7 -192 3 -91 3 -191 0 -222 -6 -47 -11 -56 -34 -65
-24 -8 -25 -10 -5 -10 19 -1 42 -35 31 -46 -2 -2 -38 -11 -80 -20 -104 -21
-364 -22 -478 -1 -143 26 -160 33 -160 68 0 19 8 19 58 1 6 -3 12 -1 12 5 0 5
-14 12 -31 16 l-31 6 8 182 c14 317 3 858 -17 858 -5 0 -10 -10 -10 -22 -1
-21 -2 -21 -6 -3 -3 11 -9 24 -14 29 -14 15 -11 -30 5 -68 8 -19 18 -80 22
-136 l7 -102 -33 7 c-18 4 -52 16 -77 27 -25 11 -47 17 -50 14 -7 -7 80 -47
121 -55 18 -4 32 -15 38 -30 7 -21 6 -23 -17 -17 -43 11 -130 45 -148 59 -16
11 -15 21 12 158 42 206 69 309 93 348 19 30 157 131 179 131 5 0 9 -8 9 -17
1 -18 29 -75 30 -59 0 5 -5 26 -12 48 -9 29 -9 41 0 50 9 9 12 5 12 -16 0 -39
55 -92 105 -102 83 -15 189 42 241 132 14 24 29 44 33 44 18 0 19 -14 5 -42
-9 -17 -13 -32 -10 -35 2 -3 12 9 21 26 8 17 17 31 19 31 2 0 30 -14 62 -31
180 -97 191 -107 233 -211 26 -64 25 -91 -1 -64 -23 22 -41 20 -33 -4 5 -15 3
-18 -9 -14 -11 4 -16 0 -17 -12 0 -15 -2 -15 -6 -4 -4 9 -10 0 -18 -25 -12
-42 -9 -79 6 -69 5 2 16 -4 26 -16 23 -26 34 -25 32 3 -6 64 5 93 35 99 21 3
23 -2 56 -131 19 -72 30 -99 30 -69 0 27 -60 232 -91 309 -30 75 -59 112 -124
156 -42 29 -235 128 -262 135 -17 4 -23 14 -24 35 -2 23 -2 24 -6 5 -2 -12 1
-39 8 -59 11 -35 10 -38 -19 -64 -33 -29 -116 -59 -164 -59 -33 0 -84 24 -91
42 -4 9 -6 9 -6 1 -1 -6 11 -21 25 -32 55 -43 180 -18 252 52 17 17 32 25 32
18 0 -21 -98 -109 -136 -121 -20 -7 -59 -10 -87 -7 -41 3 -56 11 -79 36 -33
37 -37 76 -8 84 10 3 21 0 24 -7 2 -6 5 2 5 18 1 16 4 26 8 23 3 -4 12 1 19
11 10 12 13 13 14 3 0 -8 8 -4 20 10 13 16 19 19 20 9 0 -10 3 -11 11 -3 6 6
17 10 23 9 6 -2 8 -1 4 1 -15 8 -8 25 7 19 9 -3 15 0 15 10 0 8 5 12 10 9 6
-3 10 -1 10 4 0 6 7 11 15 11 8 0 22 12 32 26 15 24 17 25 24 8 6 -14 8 -9 8
17 1 43 18 60 46 48 11 -4 33 -8 49 -8 21 -1 27 3 22 14 -3 8 -9 22 -13 31 -5
13 -2 15 16 9 28 -9 107 -9 121 0 8 5 2 17 -16 36 l-28 29 30 0 c16 0 40 7 52
16 l22 15 -30 25 c-35 30 -38 59 -10 113 10 22 23 68 28 102 l8 64 20 -32 c10
-18 22 -33 27 -33 17 0 6 117 -18 175 -30 72 -30 69 -5 62 30 -8 24 12 -16 50
-28 26 -34 37 -25 46 6 6 11 22 11 36 0 23 -1 24 -20 6 -20 -18 -20 -17 -20
11 0 42 -16 92 -42 130 -28 41 -52 46 -38 8 6 -14 10 -35 10 -47 0 -19 -3 -18
-28 13 -42 54 -65 73 -128 105 -32 17 -75 47 -96 69 l-38 38 0 -31 c0 -19 -4
-30 -10 -26 -14 9 -13 -8 2 -23 17 -17 0 -15 -63 7 -80 27 -135 57 -181 99
l-41 37 6 -69 7 -70 -46 45 c-25 24 -57 63 -71 87 -14 23 -28 42 -33 42 -4 0
-15 -25 -25 -56z m203 -437 c17 -4 43 -2 57 3 17 6 35 5 59 -5 41 -17 103 -19
141 -5 23 9 25 8 15 -9 -17 -32 -13 -43 11 -30 21 11 22 10 15 -22 l-6 -33 25
24 26 24 -7 -64 c-5 -57 -3 -73 20 -127 19 -46 26 -79 25 -125 -1 -82 -12
-154 -32 -199 -14 -32 -14 -39 -1 -64 13 -25 13 -30 0 -37 -8 -5 -13 -15 -9
-24 3 -9 0 -14 -8 -12 -8 2 -13 -3 -11 -10 2 -10 -2 -10 -18 -2 -26 14 -26 33
0 25 25 -8 27 13 3 31 -24 18 -36 17 -30 0 8 -21 -20 -43 -36 -27 -9 10 -8 11
4 6 10 -4 19 -2 22 2 3 5 -4 9 -16 10 -45 1 -53 4 -86 33 -18 17 -39 30 -45
30 -6 0 -22 3 -35 7 -19 5 -22 3 -16 -8 6 -11 5 -11 -5 -2 -10 9 -16 8 -28 -4
-10 -9 -18 -11 -20 -5 -8 25 -92 -9 -92 -38 0 -10 -5 -20 -10 -22 -7 -2 -5
-11 4 -23 15 -20 15 -20 16 0 1 20 30 67 30 49 0 -5 7 0 15 10 8 11 15 15 15
10 0 -13 80 -12 80 1 0 6 4 3 10 -5 5 -8 20 -14 33 -15 14 0 35 -13 51 -31 29
-35 32 -53 14 -73 -7 -8 0 -5 17 5 16 11 26 13 22 7 -5 -7 -4 -13 2 -13 6 0
11 -8 11 -17 0 -13 -3 -14 -12 -5 -7 7 -17 12 -22 12 -6 0 -4 -5 4 -10 11 -7
4 -9 -24 -5 -36 4 -37 3 -20 -10 18 -13 18 -14 -3 -8 -13 3 -23 9 -23 13 0 12
-61 46 -92 52 -18 3 -29 0 -33 -10 -3 -9 -13 -12 -29 -8 -14 3 -28 2 -31 -4
-7 -12 -67 50 -61 65 5 15 -13 47 -24 40 -10 -6 -37 74 -45 135 -3 25 -8 61
-11 80 l-4 35 15 -27 c9 -16 21 -28 27 -28 6 0 8 -3 5 -6 -3 -4 -2 -15 4 -26
8 -15 18 -19 40 -16 16 3 29 1 29 -4 0 -4 -12 -8 -27 -8 -19 0 -24 -3 -16 -11
12 -12 72 13 74 31 2 16 5 23 22 62 19 43 22 90 7 119 -12 22 -35 26 -27 5 4
-11 -10 -17 -57 -25 -86 -15 -86 -15 -73 14 8 17 23 27 47 30 58 10 100 33
100 55 0 21 -10 26 -25 11 -6 -5 -37 -19 -70 -31 -101 -35 -94 -35 -90 -3 2
15 6 62 10 103 3 46 15 94 29 127 21 45 28 52 58 55 18 2 44 -2 58 -8 14 -6
40 -14 58 -17z m-189 -329 c-17 -34 -19 -34 -19 -5 0 18 5 27 15 27 13 0 14
-4 4 -22z m160 -17 c9 -6 11 -18 7 -35 -6 -23 -12 -26 -46 -26 -24 0 -39 4
-37 11 1 6 -4 14 -10 16 -7 3 -13 -3 -13 -12 0 -12 -7 -15 -27 -13 -20 2 -28
9 -28 23 0 16 11 22 55 32 70 14 82 15 99 4z m579 -13 c20 -20 15 -109 -9
-148 -38 -63 -83 -86 -109 -56 -16 20 14 155 42 191 21 27 56 33 76 13z m-138
-153 c0 -21 -2 -24 -14 -13 -7 7 -11 19 -9 25 9 22 23 14 23 -12z m0 -39 c0
-11 -19 -15 -25 -6 -3 5 1 10 9 10 9 0 16 -2 16 -4z m-45 -64 c-3 -3 -11 0
-18 7 -9 10 -8 11 6 5 10 -3 15 -9 12 -12z m-141 -78 c11 -28 6 -38 -9 -18 -8
10 -15 22 -15 27 0 13 18 7 24 -9z m43 -39 c0 -8 -4 -12 -9 -9 -5 3 -6 10 -3
15 9 13 12 11 12 -6z m-197 -30 c5 3 11 1 15 -5 3 -5 -3 -10 -14 -10 -14 0
-21 6 -20 18 0 10 3 12 6 4 2 -6 9 -10 13 -7z m488 -2584 c20 -20 21 -26 10
-37 -18 -17 -114 2 -122 25 -3 9 -9 22 -12 29 -5 10 7 12 47 10 40 -2 59 -9
77 -27z m-122 -917 c44 -21 79 -63 64 -78 -14 -14 -189 -20 -222 -7 -36 14
-35 26 6 67 28 28 42 34 76 34 23 0 57 -7 76 -16z"/>
<path d="M2350 4290 c-18 -12 -2 -12 25 0 13 6 15 9 5 9 -8 0 -22 -4 -30 -9z"/>
<path d="M2268 4283 c7 -3 16 -2 19 1 4 3 -2 6 -13 5 -11 0 -14 -3 -6 -6z"/>
<path d="M2237 4253 c-3 -5 16 -9 42 -9 32 -1 40 1 26 7 -26 10 -63 11 -68 2z"/>
<path d="M2380 4201 c0 -15 10 -26 33 -36 30 -12 51 -16 172 -30 l50 -6 -33
22 c-19 12 -66 30 -105 40 -40 9 -82 21 -94 24 -19 6 -23 4 -23 -14z"/>
<path d="M2410 4120 c-28 -28 -28 -115 0 -150 11 -14 20 -31 20 -38 0 -17 60
-52 90 -52 24 1 24 1 -5 15 l-30 13 26 1 c15 1 39 11 55 23 16 12 30 23 32 24
2 1 5 24 7 50 3 53 -11 106 -24 86 -6 -9 -24 -9 -83 0 -69 11 -75 14 -67 30
13 24 4 23 -21 -2z m105 -41 c80 -14 90 -20 76 -48 -10 -18 -20 -21 -84 -21
-40 0 -77 4 -83 8 -15 10 -24 40 -18 57 7 18 27 19 109 4z"/>
<path d="M2477 4054 c-8 -8 1 -24 14 -24 5 0 9 7 9 15 0 15 -12 20 -23 9z"/>
<path d="M2317 4023 c-15 -27 -38 -117 -35 -140 2 -22 9 -29 32 -31 16 -2 33
1 39 7 8 8 3 10 -21 5 -44 -9 -48 9 -23 92 18 60 22 91 8 67z"/>
<path d="M2640 3780 c0 -5 5 -10 11 -10 5 0 7 5 4 10 -3 6 -8 10 -11 10 -2 0
-4 -4 -4 -10z"/>
<path d="M2360 3750 c36 -3 71 -10 78 -14 7 -4 12 -3 12 2 0 13 -52 22 -109
21 -41 -2 -38 -3 19 -9z"/>
<path d="M2343 3713 c9 -2 23 -2 30 0 6 3 -1 5 -18 5 -16 0 -22 -2 -12 -5z"/>
<path d="M2817 4032 c-8 -9 -20 -27 -26 -39 -10 -19 -9 -23 4 -23 22 0 29 -24
14 -52 -11 -21 -11 -22 4 -9 22 18 22 57 0 70 -14 8 -15 12 -4 25 8 10 21 14
32 11 13 -4 19 -1 19 8 0 22 -26 28 -43 9z"/>
<path d="M2001 4154 c0 -11 3 -14 6 -6 3 7 2 16 -1 19 -3 4 -6 -2 -5 -13z"/>
<path d="M2051 4025 c-1 -33 30 -108 49 -120 7 -4 4 5 -6 19 -9 15 -23 51 -30
79 -9 40 -12 45 -13 22z"/>
<path d="M2960 4016 c0 -2 8 -10 18 -17 15 -13 16 -12 3 4 -13 16 -21 21 -21
13z"/>
<path d="M2670 3395 c-6 -8 -37 -24 -68 -35 -56 -21 -104 -23 -162 -5 -21 7
-23 6 -12 -6 9 -10 37 -14 90 -14 67 0 83 4 124 29 48 28 67 46 50 46 -5 0
-15 -7 -22 -15z"/>
<path d="M2989 3353 c-30 -21 -69 -65 -69 -78 0 -5 17 9 39 31 21 23 45 44 52
46 8 3 11 8 8 11 -3 4 -16 -1 -30 -10z"/>
<path d="M2276 3331 c-15 -17 -17 -25 -7 -52 6 -18 11 -48 11 -68 0 -21 4 -41
9 -46 5 -6 11 -23 13 -40 4 -38 33 -42 34 -5 0 14 8 37 17 50 22 32 22 66 -2
99 -10 14 -21 37 -22 51 -5 31 -30 37 -53 11z"/>
<path d="M2677 3343 c-4 -3 -5 -25 -2 -47 4 -39 4 -39 -7 -13 -24 55 -38 17
-19 -51 12 -40 4 -42 -10 -2 -6 17 -15 30 -20 30 -21 0 2 -117 25 -126 12 -5
17 -64 6 -64 -3 0 -13 19 -23 42 -13 32 -20 39 -29 30 -9 -9 -8 -18 2 -39 8
-16 16 -31 18 -35 2 -5 0 -8 -5 -8 -5 0 -22 20 -38 45 -35 55 -56 46 -26 -11
19 -35 20 -39 4 -45 -12 -4 -13 -8 -5 -13 25 -15 10 -33 -37 -45 -40 -10 -49
-16 -44 -29 6 -15 5 -15 -11 -3 -12 10 -20 11 -27 4 -13 -13 22 -36 43 -28 9
4 14 -5 15 -27 2 -22 0 -28 -6 -19 -11 17 -41 7 -41 -14 0 -9 4 -14 9 -11 15
10 21 -24 9 -44 -14 -21 -6 -36 13 -24 7 4 36 8 65 9 l53 1 -6 -28 c-5 -24 -2
-30 16 -35 13 -3 23 -16 27 -32 11 -52 37 -101 54 -101 10 0 24 16 35 41 16
34 17 47 8 82 -14 50 -12 54 30 62 17 4 45 14 60 22 26 13 27 15 10 31 -17 17
-21 19 -56 21 -10 0 -15 6 -12 11 3 6 2 10 -4 10 -5 0 -12 -6 -15 -12 -4 -7
-4 -2 -2 10 6 33 -3 52 -26 52 -11 0 -16 5 -13 10 6 10 49 7 97 -6 31 -9 67
123 39 140 -4 3 -11 30 -15 60 -5 42 -2 63 14 97 11 24 20 50 20 57 0 24 -20
12 -34 -20 l-15 -33 6 50 c6 45 5 49 -10 37 -9 -8 -18 -30 -20 -50 -3 -33 -4
-32 -5 11 -2 34 -6 47 -17 47 -12 0 -15 -15 -16 -72 -1 -40 -4 -63 -6 -50 -4
19 -7 21 -19 11 -12 -10 -14 -1 -14 55 0 61 -6 77 -23 59z m16 -123 c3 -11 1
-20 -4 -20 -5 0 -9 9 -9 20 0 11 2 20 4 20 2 0 6 -9 9 -20z m104 -2 c-3 -8 -6
-5 -6 6 -1 11 2 17 5 13 3 -3 4 -12 1 -19z m-80 -30 c-3 -8 -6 -5 -6 6 -1 11
2 17 5 13 3 -3 4 -12 1 -19z m33 -184 c0 -8 -4 -12 -10 -9 -5 3 -10 10 -10 16
0 5 5 9 10 9 6 0 10 -7 10 -16z m-30 -14 c0 -5 -2 -10 -4 -10 -3 0 -8 5 -11
10 -3 6 -1 10 4 10 6 0 11 -4 11 -10z m-64 -138 c1 -7 0 -8 -2 -3 -3 6 -12 7
-20 4 -8 -3 -14 0 -14 7 0 15 33 9 36 -8z m-133 -19 c-7 -2 -19 -2 -25 0 -7 3
-2 5 12 5 14 0 19 -2 13 -5z m162 -33 c-3 -5 -11 -10 -16 -10 -6 0 -7 5 -4 10
3 6 11 10 16 10 6 0 7 -4 4 -10z"/>
<path d="M2171 3275 c0 -11 6 -31 14 -45 18 -31 18 -16 0 30 -9 23 -14 28 -14
15z"/>
<path d="M2891 3219 c-6 -18 -9 -34 -7 -36 2 -2 9 10 16 27 7 17 10 33 8 36
-3 3 -11 -9 -17 -27z"/>
<path d="M2506 3044 c-7 -18 0 -34 15 -34 5 0 9 11 9 25 0 28 -15 34 -24 9z"/>
<path d="M2810 2937 c-9 -7 -14 -20 -12 -29 2 -13 -1 -16 -12 -12 -11 4 -15 2
-11 -8 3 -8 16 -13 28 -12 12 1 26 3 30 3 5 1 5 6 1 12 -3 6 -1 15 6 19 13 8
7 40 -7 40 -4 0 -15 -6 -23 -13z"/>
<path d="M2073 2680 c0 -36 2 -50 4 -32 2 17 2 47 0 65 -2 17 -4 3 -4 -33z"/>
<path d="M2740 2636 c0 -8 5 -18 10 -21 6 -3 10 3 10 14 0 12 -4 21 -10 21 -5
0 -10 -6 -10 -14z"/>
<path d="M3061 2623 c-10 -26 -10 -27 4 -9 8 11 15 23 15 28 0 15 -7 8 -19
-19z"/>
<path d="M3193 2610 c0 -25 2 -35 4 -22 2 12 2 32 0 45 -2 12 -4 2 -4 -23z"/>
<path d="M3024 2568 l-19 -23 23 19 c21 18 27 26 19 26 -2 0 -12 -10 -23 -22z"/>
<path d="M2057 2548 c-3 -13 -1 -57 3 -98 l7 -75 -1 98 c0 53 -2 97 -2 97 -1
0 -4 -10 -7 -22z"/>
<path d="M2126 2547 c2 -7 14 -19 27 -26 21 -13 21 -12 -2 13 -27 29 -33 32
-25 13z"/>
<path d="M3202 2470 c-1 -52 -4 -120 -7 -150 l-4 -55 10 55 c5 30 8 98 6 150
l-3 95 -2 -95z"/>
<path d="M2660 2521 c0 -21 5 -31 16 -31 11 0 14 8 12 27 -4 39 -28 42 -28 4z"/>
<path d="M3024 2505 c-10 -8 -14 -15 -8 -15 6 0 17 7 24 15 16 19 9 19 -16 0z"/>
<path d="M2146 2465 c10 -8 26 -14 34 -14 9 0 4 6 -10 14 -33 19 -49 19 -24 0z"/>
<path d="M2372 2414 c-13 -9 -22 -26 -22 -40 0 -21 4 -25 22 -22 24 3 49 43
41 64 -7 18 -14 18 -41 -2z"/>
<path d="M2124 2412 c3 -6 1 -12 -6 -14 -16 -6 -2 -55 17 -55 11 0 12 3 3 14
-9 11 -7 12 7 7 14 -6 16 -4 9 7 -4 8 -9 20 -9 28 0 8 -6 16 -14 19 -8 3 -11
0 -7 -6z"/>
<path d="M2758 2376 c-23 -17 -22 -23 2 -71 11 -22 20 -45 20 -51 0 -6 17 -15
37 -19 21 -4 41 -11 44 -16 3 -5 12 2 19 16 11 21 12 28 1 34 -7 5 -12 11 -11
15 1 4 0 10 -3 14 -2 4 -2 1 -1 -5 2 -7 -5 -13 -16 -13 -13 0 -18 6 -17 20 1
11 5 20 9 20 6 0 1 48 -6 56 -8 11 -65 11 -78 0z"/>
<path d="M2054 2255 c0 -66 1 -92 3 -57 2 34 2 88 0 120 -2 31 -3 3 -3 -63z"/>
<path d="M2287 2343 c-12 -20 -19 -103 -8 -103 25 0 52 41 49 73 -3 30 -29 49
-41 30z"/>
<path d="M3012 2255 c-17 -37 -15 -75 3 -75 8 0 15 5 15 10 0 6 9 10 20 10 13
0 20 7 20 20 0 11 -7 20 -15 20 -9 0 -19 9 -23 21 -8 20 -8 20 -20 -6z"/>
<path d="M2323 2234 c-9 -23 11 -38 26 -20 13 16 7 36 -10 36 -5 0 -12 -7 -16
-16z"/>
<path d="M3184 2150 c0 -52 1 -74 3 -47 2 26 2 68 0 95 -2 26 -3 4 -3 -48z"/>
<path d="M3120 2110 c0 -16 5 -30 10 -30 6 0 10 3 10 8 0 4 3 17 6 30 5 16 2
22 -10 22 -11 0 -16 -9 -16 -30z"/>
<path d="M2046 2075 c3 -33 5 -71 5 -85 1 -21 2 -22 11 -6 5 9 6 25 2 34 -4 9
-11 40 -15 67 -7 47 -7 47 -3 -10z"/>
<path d="M2780 2049 c-25 -6 -118 -8 -207 -7 -176 3 -196 -7 -36 -18 102 -7
287 10 308 28 11 10 -4 9 -65 -3z"/>
<path d="M2135 1990 c11 -5 29 -8 40 -8 16 0 15 2 -5 8 -34 11 -60 11 -35 0z"/>
<path d="M3040 1970 c14 -4 32 -8 40 -9 13 -1 13 0 0 9 -8 5 -26 9 -40 9 l-25
-1 25 -8z"/>
<path d="M3108 1973 c7 -3 16 -2 19 1 4 3 -2 6 -13 5 -11 0 -14 -3 -6 -6z"/>
<path d="M2211 1710 c0 -14 4 -32 9 -40 8 -12 10 -12 9 5 0 11 -4 29 -9 40 -8
18 -9 18 -9 -5z"/>
<path d="M2987 130 c-30 -29 -113 -73 -170 -90 -47 -15 -183 -15 -220 -1 -16
6 -26 7 -22 1 8 -14 74 -30 122 -30 66 0 143 20 204 52 59 31 128 83 119 90
-3 2 -17 -8 -33 -22z"/>
<path d="M2405 140 l-20 -9 20 0 c11 0 29 4 40 9 l20 9 -20 0 c-11 0 -29 -4
-40 -9z"/>
<path d="M2280 120 l-45 -7 50 -1 c28 0 61 4 75 8 24 8 24 8 -5 8 -16 -1 -50
-4 -75 -8z"/>
</g>
</svg>
